# xmcd
#
# Track frame offsets: 
#        150
#        981
#        9754
#        20514
#        28703
#        43026
#        56996
#        70917
#        87400
#        97448
#        107174
#        118244
#        127796
#        135379
#        144702
#
# Disc length: 2081 seconds
#
# Revision: 0
# Processed by: cddbd v1.5PL3 Copyright (c) Steve Scherf et al.
# Submitted via: ExactAudioCopy v0.95a4
#
DISCID=cb081f0f
DTITLE=Various Artist - Reggeton Gold Colection
DYEAR=2004
DGENRE=Reggeton
TTITLE0=Dj R. Mercenario - Intro
TTITLE1=Daddy Yankee and Dj Davey - Latigazo (Remix)
TTITLE2=Dj Nelson - Mas Yaqueo
TTITLE3=Dj R. Mercenario - Excitame
TTITLE4=Dj R. Mercenario - Guaya Soba
TTITLE5=Ivy Queen and Dj R. Mercenario - Papi Te Quiero (Remix)
TTITLE6=Dj Blass and Mercenario - Pa Encima
TTITLE7=Dj R. Mercenario - Los Mozalbetes
TTITLE8=Dj Blass - La Boa
TTITLE9=Dj Urba and  Mercenario - Perreo
TTITLE10=Dj R. Mercenario - Alberto Stylee (Remix)
TTITLE11=Dj R. Mercenario - Quieres Mambo
TTITLE12=Dj R. Mercenario - Dale Duro (Remix)
TTITLE13=Dj R. Mercenario - Peggate (Remix)
TTITLE14=Dj R. Mercenario - Castigo
EXTD=
EXTT0=
EXTT1=
EXTT2=
EXTT3=
EXTT4=
EXTT5=
EXTT6=
EXTT7=
EXTT8=
EXTT9=
EXTT10=
EXTT11=
EXTT12=
EXTT13=
EXTT14=
PLAYORDER=
